<svg width="60" height="40" viewBox="0 0 60 40" fill="none" xmlns="http://www.w3.org/2000/svg">
<g clip-path="url(#clip0_7994_5023)">
<path d="M59.2308 2.20747L56.2398 0L0 11.7105V37.6057L2.99098 40L59.2308 28.1331V2.20747Z" fill="black"/>
<path d="M3.94824 14.699L58.273 3.3876V27.3544L3.94824 38.8174V14.699Z" fill="white"/>
<path d="M57.3172 4.56775V26.5757L4.905 37.6348V15.4801L57.3172 4.56775ZM59.231 2.20867L2.99121 13.9179V40L59.231 28.133V2.20746V2.20867Z" fill="black"/>
<path d="M9.13889 18.744C11.1458 18.3547 12.1178 18.1667 14.011 17.8004C15.8559 17.3201 19.3546 17.2449 19.2434 20.0637C19.1805 21.6453 18.4056 23.2536 16.8472 24.1438C18.7876 24.1257 19.9386 25.5059 19.8987 27.3507C19.8334 30.3163 16.6804 31.4855 14.1706 31.9973C12.2205 32.3915 11.2195 32.5929 9.15581 33.0016C9.05426 28.2495 9.22956 23.4962 9.1401 18.744H9.13889ZM13.895 23.1711C14.9601 22.9516 15.5101 22.3997 15.5162 21.6137C15.5222 20.8496 14.9951 20.5973 13.93 20.8242C13.6278 20.8884 13.4754 20.9212 13.1708 20.9855C13.1684 21.8806 13.1647 22.3573 13.1563 23.3239C13.4525 23.2621 13.6012 23.2317 13.895 23.1711ZM13.1273 26.4447C13.1176 27.5606 13.1128 28.1161 13.1091 29.1446C13.5613 29.0621 13.7849 29.0209 14.231 28.9396C15.4231 28.7225 16.0215 28.1852 16.0288 27.3253C16.036 26.4217 15.4062 26.0093 14.2504 26.23C13.8043 26.3149 13.5794 26.3586 13.1261 26.4447H13.1273Z" fill="black"/>
<path d="M49.4555 10.7535C53.6385 9.98454 55.296 13.4849 55.296 16.7683C55.296 20.8521 53.7074 24.2554 49.3854 25.1712C45.4139 26.0129 43.1217 22.9746 43.2064 19.2147C43.2934 15.3492 45.3632 11.5067 49.4555 10.7547V10.7535ZM49.383 22.3936C50.8567 22.1183 51.8408 20.2541 51.865 17.3929C51.8891 14.6057 50.9462 13.206 49.4579 13.531C47.9697 13.8561 46.9481 15.656 46.9203 18.396C46.8913 21.1844 47.9092 22.669 49.383 22.3936Z" fill="black"/>
<path d="M26.3237 15.2C30.5067 14.431 32.1642 17.9314 32.1642 21.2147C32.1642 25.2985 30.5756 28.7019 26.2535 29.6176C22.2821 30.4594 19.9899 27.4211 20.0745 23.6611C20.1616 19.7956 22.2313 15.9532 26.3237 15.2012V15.2ZM26.2511 26.8401C27.7249 26.5648 28.709 24.7006 28.7331 21.8393C28.7573 19.0521 27.8143 17.6524 26.3261 17.9775C24.8378 18.3026 23.8163 20.1025 23.7885 22.8424C23.7595 25.6309 24.7774 27.1154 26.2511 26.8401Z" fill="black"/>
<path d="M32.7318 14.1642C34.0157 13.9131 34.6492 13.7882 35.9077 13.5407L39.4548 19.6925C39.4633 17.4074 39.4802 15.1223 39.4669 12.8385C40.7073 12.5935 41.3239 12.471 42.557 12.2247C42.58 16.8337 42.5208 21.4427 42.5474 26.0505C41.2477 26.3222 40.5961 26.4593 39.2868 26.7358L35.8848 20.9357C35.8727 23.1105 35.8521 25.2852 35.8654 27.4611C34.6008 27.7292 33.9637 27.865 32.675 28.1379C32.6496 23.4792 32.7523 18.8217 32.7318 14.1629V14.1642Z" fill="black"/>
</g>
<defs>
<clipPath id="clip0_7994_5023">
<rect width="59.2308" height="40" fill="white"/>
</clipPath>
</defs>
</svg>
